# xmcd
#
# Track frame offsets:
#	150
#	16163
#	35521
#	54498
#	71798
#	90863
#	106374
#	125324
#	143085
#	158900
#	174678
#	190085
#	207430
#	223671
#	242165
#	260060
#
# Disc length: 3683 seconds
#
# Revision: 1
# Processed by: cddbd v1.5.2PL0 Copyright (c) Steve Scherf et al.
# Submitted via: audiograbber 1.83.01
#
DISCID=e40e6110
DTITLE=ChartBuster - CB5122-03
DYEAR=1900
DGENRE=Karaoke
TTITLE0=Rehab and Hank Williams Jr - Bartender Song (Sittin' At A Bar)
TTITLE1=Kenny Chesney - Got A Little Crazy
TTITLE2=Taylor Swift - Love Story
TTITLE3=Josh Turner - Everything Is Fine
TTITLE4=Little Big Town - Fine Line
TTITLE5=Lee Ann Womack - Last Call
TTITLE6=Montgomery Gentry - Roll With Me
TTITLE7=Rodney Atkins - Invisibly Shaken
TTITLE8=Kellie Pickler - Don't You Know You're Beautiful
TTITLE9=Luke Bryan - Country Man
TTITLE10=Josh Gracin - Unbelievable (Ann Marie)
TTITLE11=Trisha Yearwood - They Call It Falling For A Reason
TTITLE12=Dierks Bentley - Feel That Fire
TTITLE13=Trace Adkins - Muddy Water
TTITLE14=Sara Evans - Love You With All My Heart
TTITLE15=Van Zant - Goes Down Easy
EXTD=
EXTT0=
EXTT1=
EXTT2=
EXTT3=
EXTT4=
EXTT5=
EXTT6=
EXTT7=
EXTT8=
EXTT9=
EXTT10=
EXTT11=
EXTT12=
EXTT13=
EXTT14=
EXTT15=
PLAYORDER=
